<svg xmlns="http://www.w3.org/2000/svg" fill-rule="evenodd" stroke-linejoin="round" stroke-miterlimit="2" clip-rule="evenodd" viewBox="0 0 64 64"><g><rect width="64" height="64" fill="none"/><circle cx="660" cy="192" r="16" fill="#ff6adf" transform="translate(-640 -160)"/><circle cx="660" cy="192" r="16" fill="#ff6adf" transform="matrix(.4375 0 0 .9375 -243.75 -148)"/><circle cx="660" cy="192" r="16" fill="#ff6adf" transform="matrix(.1875 0 0 .875 -66.75 -136)"/><path fill="#617881" d="M698.59 203.87C698.129 205.22 697.584 206 697 206 695.344 206 694 199.727 694 192 694 184.273 695.344 178 697 178 697.139 178 697.276 178.044 697.41 178.13 696.563 180.606 696 184.998 696 190 696 197.079 697.128 202.937 698.59 203.87zM649.733 179.733C647.403 182.512 646 186.093 646 190 646 198.831 653.169 206 662 206 665.907 206 669.488 204.597 672.267 202.267 669.331 205.771 664.924 208 660 208 651.169 208 644 200.831 644 192 644 187.076 646.229 182.669 649.733 179.733zM683.082 177.571C681.223 180.269 680 184.831 680 190 680 198.279 683.137 205 687 205 687.665 205 688.308 204.801 688.918 204.429 687.8 206.052 686.451 207 685 207 681.137 207 678 200.279 678 192 678 185.146 680.15 179.36 683.082 177.571z" transform="translate(-640 -160)"/></g></svg>