<?xml version="1.0" encoding="UTF-8"?><svg xmlns="http://www.w3.org/2000/svg" xmlns:xlink="http://www.w3.org/1999/xlink" version="1.1" x="0px" y="0px" viewBox="0 0 32 32" xml:space="preserve"><g id="OUTLINE_copy"><g fill="#414752"><path d="M14.895 15.618s1.589-.121 1.589-2.022c0-1.9-1.078-2.837-2.725-2.837l-5.644-.009v10.5h5.775s2.887.091 2.887-3.15c.001 0 .213-2.482-1.882-2.482zm-4.68-3.293h2.887s.988.016.988 1.297c0 1.328-.988 1.328-.988 1.328h-2.887v-2.625zm3.15 7.35h-3.15v-3.15h3.15s1.575.016 1.575 1.575-1.348 1.575-1.575 1.575z"/><path d="M21.24 13.375c-3.944 0-3.937 3.937-3.937 3.937s-.263 3.938 3.937 3.938c0 0 3.675 0 3.675-3.15h-2.1s0 1.575-1.575 1.575c0 0-1.575 0-1.575-2.1h5.25c0-1.05 0-4.2-3.675-4.2zm-1.575 3.15s-.035-1.575 1.575-1.575c1.609 0 1.575 1.575 1.575 1.575h-3.15z"/><path d="M19.14 11.8h4.2v1.05h-4.2z"/></g><path fill="#414752" d="M16 1c8.271 0 15 6.729 15 15s-6.729 15-15 15S1 24.271 1 16 7.729 1 16 1m0-1C7.164 0 0 7.163 0 16s7.164 16 16 16c8.837 0 16-7.163 16-16S24.837 0 16 0z" id="Shopping_10_100_"/></g><metadata><rdf:RDF xmlns:rdf="http://www.w3.org/1999/02/22-rdf-syntax-ns#" xmlns:rdfs="http://www.w3.org/2000/01/rdf-schema#" xmlns:dc="http://purl.org/dc/elements/1.1/"><rdf:Description about="https://iconscout.com/legal#licenses" dc:title="behance,social,media,online" dc:description="behance,social,media,online" dc:publisher="Iconscout" dc:date="2017-09-15" dc:format="image/svg+xml" dc:language="en"><dc:creator><rdf:Bag><rdf:li>Epicflaticon by Alfredo</rdf:li></rdf:Bag></dc:creator></rdf:Description></rdf:RDF></metadata></svg>