<?xml version="1.0" encoding="UTF-8"?><svg xmlns="http://www.w3.org/2000/svg" xmlns:xlink="http://www.w3.org/1999/xlink" version="1.1" id="Layer_1" x="0px" y="0px" viewBox="0 0 32 32" xml:space="preserve"><g id="OUTLINE_copy"><path fill="#414752" d="M22.29 10.826c-.015.022-1.322 1.909-4.537 3.223a25.668 25.668 0 0 1 .718 1.603c2.799-.353 5.555.24 5.673.264a8.122 8.122 0 0 0-1.854-5.09zm-3.324 6.111c1.068 2.935 1.502 5.327 1.585 5.818a8.147 8.147 0 0 0 3.49-5.464c-.167-.054-2.446-.775-5.075-.354zm.214 6.562c-.12-.711-.594-3.206-1.74-6.185l-.055.018c-4.806 1.675-6.375 5.051-6.392 5.088A8.127 8.127 0 0 0 16 24.144a8.088 8.088 0 0 0 3.18-.645zm-2.055-10.664c3.073-1.151 4.233-2.918 4.253-2.948A8.103 8.103 0 0 0 16 7.856c-.662 0-1.304.08-1.92.228.122.163 1.653 2.192 3.045 4.751zm-.241 3.129a26.445 26.445 0 0 0-.661-1.384c-4.194 1.256-8.218 1.165-8.362 1.16-.002.087-.006.173-.006.26a8.1 8.1 0 0 0 2.087 5.441c-.003-.003 2.226-3.958 6.621-5.379.106-.035.215-.066.321-.098zm8.459-1.884a9.512 9.512 0 0 1-1.436 7.253 9.64 9.64 0 0 1-1.163 1.411 9.897 9.897 0 0 1-1.411 1.164 9.69 9.69 0 0 1-1.621.879 9.596 9.596 0 0 1-3.712.751 9.611 9.611 0 0 1-3.713-.751 9.729 9.729 0 0 1-1.621-.879 9.635 9.635 0 0 1-3.454-4.195 9.589 9.589 0 0 1-.557-1.792 9.659 9.659 0 0 1 .001-3.842 9.448 9.448 0 0 1 1.437-3.413 9.657 9.657 0 0 1 1.164-1.411 9.654 9.654 0 0 1 3.031-2.044A9.512 9.512 0 0 1 16 6.462c.645 0 1.291.065 1.921.194a9.408 9.408 0 0 1 3.412 1.437c.504.342.98.733 1.411 1.163a9.64 9.64 0 0 1 2.043 3.032c.245.574.431 1.178.556 1.792zm-9.793-.753a48.94 48.94 0 0 0-3.025-4.693 8.156 8.156 0 0 0-4.495 5.688c.214 0 3.608.043 7.52-.995z"/><path fill="#414752" d="M16 1c8.271 0 15 6.729 15 15s-6.729 15-15 15S1 24.271 1 16 7.729 1 16 1m0-1C7.163 0 0 7.163 0 16s7.163 16 16 16 16-7.163 16-16S24.837 0 16 0z" id="Shopping_10_119_"/></g><metadata><rdf:RDF xmlns:rdf="http://www.w3.org/1999/02/22-rdf-syntax-ns#" xmlns:rdfs="http://www.w3.org/2000/01/rdf-schema#" xmlns:dc="http://purl.org/dc/elements/1.1/"><rdf:Description about="https://iconscout.com/legal#licenses" dc:title="dribbble,social,media,online" dc:description="dribbble,social,media,online" dc:publisher="Iconscout" dc:date="2017-09-15" dc:format="image/svg+xml" dc:language="en"><dc:creator><rdf:Bag><rdf:li>Epicflaticon by Alfredo</rdf:li></rdf:Bag></dc:creator></rdf:Description></rdf:RDF></metadata></svg>