<?xml version="1.0" encoding="UTF-8"?><svg xmlns="http://www.w3.org/2000/svg" xmlns:xlink="http://www.w3.org/1999/xlink" version="1.1" x="0px" y="0px" viewBox="0 0 32 32" xml:space="preserve"><g id="OUTLINE_copy"><path fill="#414752" d="M23.605 14.516c.099.529.153 1.084.153 1.662 0 4.522-3.028 7.739-7.6 7.739-4.374 0-7.917-3.543-7.917-7.917s3.543-7.917 7.917-7.917c2.138 0 3.924.787 5.294 2.063l-2.232 2.232v-.005c-.831-.792-1.885-1.197-3.062-1.197-2.612 0-4.735 2.207-4.735 4.819s2.123 4.824 4.735 4.824c2.37 0 3.983-1.356 4.315-3.216h-4.315v-3.088l7.447.001z"/><path fill="#414752" d="M16 1c8.271 0 15 6.729 15 15s-6.729 15-15 15S1 24.271 1 16 7.729 1 16 1m0-1C7.164 0 0 7.163 0 16s7.164 16 16 16 16-7.163 16-16S24.837 0 16 0z" id="Shopping_10_104_"/></g><metadata><rdf:RDF xmlns:rdf="http://www.w3.org/1999/02/22-rdf-syntax-ns#" xmlns:rdfs="http://www.w3.org/2000/01/rdf-schema#" xmlns:dc="http://purl.org/dc/elements/1.1/"><rdf:Description about="https://iconscout.com/legal#licenses" dc:title="google,search,social,media,online" dc:description="google,search,social,media,online" dc:publisher="Iconscout" dc:date="2017-09-15" dc:format="image/svg+xml" dc:language="en"><dc:creator><rdf:Bag><rdf:li>Epicflaticon by Alfredo</rdf:li></rdf:Bag></dc:creator></rdf:Description></rdf:RDF></metadata></svg>