<?xml version="1.0" encoding="UTF-8"?><svg xmlns="http://www.w3.org/2000/svg" xmlns:xlink="http://www.w3.org/1999/xlink" version="1.1" id="Layer_1" x="0px" y="0px" viewBox="0 0 32 32" xml:space="preserve"><g id="OUTLINE_copy"><path fill="#414752" d="M21.874 8.167H10.126a1.928 1.928 0 0 0-1.959 1.959v11.749c0 1.105.852 1.959 1.959 1.959h11.749a1.929 1.929 0 0 0 1.959-1.959V10.126a1.93 1.93 0 0 0-1.96-1.959zm-5.862 4.756c1.737 0 3.145 1.364 3.145 3.048 0 1.682-1.408 3.048-3.145 3.048-1.736 0-3.144-1.365-3.144-3.048 0-1.684 1.408-3.048 3.144-3.048zm5.862 8.462c0 .344-.147.49-.49.49h-10.77c-.343 0-.49-.146-.49-.49v-6.854l1.22.265a4.564 4.564 0 0 0-.202 1.344c0 2.604 2.181 4.716 4.868 4.716 2.688 0 4.868-2.112 4.868-4.716 0-.467-.071-.918-.202-1.344l1.197-.265v6.854zm0-8.811a.49.49 0 0 1-.49.49h-1.959a.49.49 0 0 1-.49-.49v-1.959a.49.49 0 0 1 .49-.49h1.959a.49.49 0 0 1 .49.49v1.959z"/><path fill="#414752" d="M16 1c8.271 0 15 6.729 15 15s-6.729 15-15 15S1 24.271 1 16 7.729 1 16 1m0-1C7.163 0 0 7.164 0 16s7.163 16 16 16 16-7.163 16-16S24.837 0 16 0z" id="Shopping_10_108_"/></g><metadata><rdf:RDF xmlns:rdf="http://www.w3.org/1999/02/22-rdf-syntax-ns#" xmlns:rdfs="http://www.w3.org/2000/01/rdf-schema#" xmlns:dc="http://purl.org/dc/elements/1.1/"><rdf:Description about="https://iconscout.com/legal#licenses" dc:title="instagram,social,media,online" dc:description="instagram,social,media,online" dc:publisher="Iconscout" dc:date="2017-09-15" dc:format="image/svg+xml" dc:language="en"><dc:creator><rdf:Bag><rdf:li>Epicflaticon by Alfredo</rdf:li></rdf:Bag></dc:creator></rdf:Description></rdf:RDF></metadata></svg>