<?xml version="1.0" encoding="UTF-8"?><svg xmlns="http://www.w3.org/2000/svg" xmlns:xlink="http://www.w3.org/1999/xlink" version="1.1" x="0px" y="0px" viewBox="0 0 32 32" xml:space="preserve"><g id="OUTLINE_copy"><path fill="#414752" d="M13.507 18.612a1.448 1.448 0 0 1-1.447-1.446c0-.797.649-1.446 1.447-1.446.797 0 1.446.649 1.446 1.446a1.448 1.448 0 0 1-1.446 1.446zm10.465-1.008c.022.165.033.328.033.487 0 3.007-3.598 5.454-8.02 5.454s-8.02-2.447-8.02-5.454c0-.164.012-.334.036-.507a2.206 2.206 0 0 1-.901-1.779 2.214 2.214 0 1 1 3.539-1.778c1.375-.836 3.128-1.323 4.97-1.381l1.413-4.014 3.385.809a1.843 1.843 0 0 1 1.635-.985c1.021 0 1.851.83 1.851 1.851 0 1.02-.83 1.851-1.851 1.851-.96 0-1.753-.736-1.842-1.674l-2.494-.596-.976 2.775c1.712.108 3.335.591 4.618 1.375a2.209 2.209 0 0 1 1.335-.449 2.22 2.22 0 0 1 2.217 2.217 2.2 2.2 0 0 1-.928 1.798zm-15.81-1.799c0 .222.065.438.185.622.292-.619.75-1.203 1.345-1.715a1.156 1.156 0 0 0-1.53 1.093zm14.78 2.286c0-2.421-3.121-4.391-6.957-4.391s-6.957 1.97-6.957 4.391c0 2.421 3.121 4.391 6.957 4.391s6.957-1.97 6.957-4.391zm-.654-3.372c.599.518 1.058 1.108 1.348 1.735.131-.19.202-.416.202-.649a1.156 1.156 0 0 0-1.55-1.086zm-1.034-4.413a.789.789 0 0 0 1.576 0 .789.789 0 0 0-1.576 0zm-2.599 9.438a.528.528 0 0 0-.376.155c-.029.028-.723.682-2.309.682-1.566 0-2.197-.654-2.199-.656a.53.53 0 0 0-.804.694c.025.029.256.291.746.541.628.321 1.388.484 2.257.484.863 0 1.632-.16 2.284-.475.505-.244.758-.499.785-.528a.533.533 0 0 0-.014-.747.526.526 0 0 0-.37-.15zm-.017-4.024c-.798 0-1.447.649-1.447 1.446a1.448 1.448 0 0 0 2.893 0c0-.797-.648-1.446-1.446-1.446z"/><path fill="#414752" d="M16 1c8.271 0 15 6.729 15 15s-6.729 15-15 15S1 24.271 1 16 7.729 1 16 1m0-1C7.163 0 0 7.163 0 16s7.163 16 16 16 16-7.163 16-16S24.836 0 16 0z" id="Shopping_10_98_"/></g><metadata><rdf:RDF xmlns:rdf="http://www.w3.org/1999/02/22-rdf-syntax-ns#" xmlns:rdfs="http://www.w3.org/2000/01/rdf-schema#" xmlns:dc="http://purl.org/dc/elements/1.1/"><rdf:Description about="https://iconscout.com/legal#licenses" dc:title="reddit,social,media,online" dc:description="reddit,social,media,online" dc:publisher="Iconscout" dc:date="2017-09-15" dc:format="image/svg+xml" dc:language="en"><dc:creator><rdf:Bag><rdf:li>Epicflaticon by Alfredo</rdf:li></rdf:Bag></dc:creator></rdf:Description></rdf:RDF></metadata></svg>