<?xml version="1.0" encoding="UTF-8"?><!DOCTYPE svg PUBLIC "-//W3C//DTD SVG 1.1//EN" "http://www.w3.org/Graphics/SVG/1.1/DTD/svg11.dtd"><svg xmlns="http://www.w3.org/2000/svg" xmlns:xlink="http://www.w3.org/1999/xlink" version="1.1" width="32" height="32" viewBox="0 0 32 32"><path fill="#444" d="M6.08 23.835v5.32h16.767V18.482l-.871.097-.903.097-.097 4.417-.097 4.45H7.691v-9.028H6.079v5.32zm2.902.806v.967H19.3v-1.935H8.982v.967zm.155-3.809l-.105.962 10.257 1.118.21-1.923-10.257-1.118-.105.962zm.771-4.55l-.251.934 9.965 2.676.502-1.868-9.965-2.676-.251.934zm2.116-5.304l-.515.819 8.734 5.494 1.03-1.638-8.734-5.494-.515.819zm4.941-4.94l-.797.549 5.853 8.498 1.593-1.097-5.853-8.498-.797.549zm6.448-2.489l-.951.177 1.893 10.143 1.902-.355-1.892-10.143-.951.177z"/><metadata><rdf:RDF xmlns:rdf="http://www.w3.org/1999/02/22-rdf-syntax-ns#" xmlns:rdfs="http://www.w3.org/2000/01/rdf-schema#" xmlns:dc="http://purl.org/dc/elements/1.1/"><rdf:Description about="https://iconscout.com/legal#licenses" dc:title="stackoverflow" dc:description="stackoverflow" dc:publisher="Iconscout" dc:date="2017-09-24" dc:format="image/svg+xml" dc:language="en"><dc:creator><rdf:Bag><rdf:li>Vorillaz</rdf:li></rdf:Bag></dc:creator></rdf:Description></rdf:RDF></metadata></svg>