<?xml version="1.0" encoding="UTF-8"?><svg xmlns="http://www.w3.org/2000/svg" xmlns:xlink="http://www.w3.org/1999/xlink" version="1.1" x="0px" y="0px" viewBox="0 0 32 32" xml:space="preserve"><g id="OUTLINE_copy"><path fill="#414752" d="M18.014 9.564c-1.439.523-2.348 1.874-2.244 3.351l.035.57-.576-.07c-2.094-.268-3.925-1.175-5.479-2.7l-.76-.756-.196.559c-.414 1.245-.149 2.56.714 3.445.46.489.356.559-.437.268-.276-.093-.518-.163-.541-.128-.08.082.196 1.14.414 1.559.299.582.909 1.152 1.577 1.49l.564.268-.667.012c-.644 0-.667.012-.598.257.23.756 1.139 1.559 2.152 1.909l.714.244-.621.372a6.464 6.464 0 0 1-3.085.861c-.519.012-.944.058-.944.093 0 .116 1.405.767 2.221 1.024 2.451.756 5.364.43 7.551-.861 1.554-.92 3.107-2.746 3.833-4.516.392-.942.783-2.665.783-3.49 0-.536.035-.605.679-1.245.38-.372.737-.779.806-.896.115-.221.103-.221-.483-.024-.978.349-1.117.303-.633-.221.356-.372.783-1.047.783-1.245 0-.035-.172.023-.369.128-.207.116-.667.291-1.013.395l-.621.198-.564-.385c-.311-.209-.748-.442-.978-.512-.589-.163-1.487-.14-2.017.046z"/><path fill="#414752" d="M16 1c8.271 0 15 6.729 15 15s-6.729 15-15 15S1 24.271 1 16 7.729 1 16 1m0-1C7.163 0 0 7.164 0 16s7.163 16 16 16 16-7.164 16-16S24.837 0 16 0z" id="Shopping_10_117_"/></g><metadata><rdf:RDF xmlns:rdf="http://www.w3.org/1999/02/22-rdf-syntax-ns#" xmlns:rdfs="http://www.w3.org/2000/01/rdf-schema#" xmlns:dc="http://purl.org/dc/elements/1.1/"><rdf:Description about="https://iconscout.com/legal#licenses" dc:title="twitter,social,media,online" dc:description="twitter,social,media,online" dc:publisher="Iconscout" dc:date="2017-09-15" dc:format="image/svg+xml" dc:language="en"><dc:creator><rdf:Bag><rdf:li>Epicflaticon by Alfredo</rdf:li></rdf:Bag></dc:creator></rdf:Description></rdf:RDF></metadata></svg>