<?xml version="1.0" encoding="UTF-8"?><svg xmlns="http://www.w3.org/2000/svg" xmlns:xlink="http://www.w3.org/1999/xlink" version="1.1" x="0px" y="0px" viewBox="0 0 32 32" xml:space="preserve"><g id="OUTLINE_copy"><path fill="#414752" d="M24.514 12.295s-.169-1.278-.69-1.841c-.661-.738-1.401-.742-1.741-.784-2.432-.188-6.079-.188-6.079-.188h-.008s-3.647 0-6.079.188c-.339.042-1.079.046-1.741.784-.52.563-.69 1.841-.69 1.841s-.174 1.5-.174 2.999V16.7c0 1.501.174 3 .174 3s.169 1.278.69 1.839c.662.738 1.529.715 1.916.792 1.39.143 5.908.187 5.908.187s3.651-.006 6.083-.193c.339-.044 1.08-.048 1.741-.785.52-.562.69-1.839.69-1.839s.174-1.5.174-3v-1.406c0-1.5-.174-3-.174-3zM13.83 19.259v-6.518L19.262 16l-5.432 3.259z"/><path fill="#414752" d="M16 1c8.271 0 15 6.729 15 15s-6.729 15-15 15S1 24.271 1 16 7.729 1 16 1m0-1C7.164 0 0 7.164 0 16s7.164 16 16 16 16-7.163 16-16S24.836 0 16 0z" id="Shopping_10_111_"/></g><metadata><rdf:RDF xmlns:rdf="http://www.w3.org/1999/02/22-rdf-syntax-ns#" xmlns:rdfs="http://www.w3.org/2000/01/rdf-schema#" xmlns:dc="http://purl.org/dc/elements/1.1/"><rdf:Description about="https://iconscout.com/legal#licenses" dc:title="youtube,play,social,media,online" dc:description="youtube,play,social,media,online" dc:publisher="Iconscout" dc:date="2017-09-15" dc:format="image/svg+xml" dc:language="en"><dc:creator><rdf:Bag><rdf:li>Epicflaticon by Alfredo</rdf:li></rdf:Bag></dc:creator></rdf:Description></rdf:RDF></metadata></svg>