<svg xmlns="http://www.w3.org/2000/svg" enable-background="new 0 0 21 24" viewBox="0 0 21 24"><path d="M12.6,3.3L17.2,6c0.4-0.4,0.9-0.6,1.5-0.6c1.1,0,2,0.9,2,2c0,0.9-0.6,1.7-1.5,1.9l0,0v5.3c0.9,0.2,1.5,1,1.5,1.9
	c0,1.1-0.9,2-2,2c-0.6,0-1.1-0.3-1.5-0.7l0,0l-4.6,2.7c0.1,0.2,0.1,0.4,0.1,0.6c0,1.1-0.9,2-2,2s-2-0.9-2-2c0-0.2,0-0.4,0.1-0.6l0,0
	L4.1,18c-0.4,0.4-0.9,0.6-1.4,0.6c-1.1,0-2-0.9-2-2c0-0.9,0.6-1.7,1.5-1.9l0,0V9.3c-0.9-0.2-1.5-1-1.5-2c0-1.1,0.9-2,2-2
	c0.4,0,0.7,0.1,1,0.3l0,0C3.9,5.7,4,5.9,4.1,6l0,0l4.6-2.7C8.7,3.2,8.7,3,8.7,2.8c0-1.1,0.9-2,2-2s2,0.9,2,2
	C12.7,3,12.7,3.2,12.6,3.3L12.6,3.3L12.6,3.3z M12.1,4.2C12.1,4.2,12.1,4.2,12.1,4.2L12.1,4.2l6,10.5c0,0,0.1,0,0.1,0V9.3
	c-0.9-0.2-1.5-1-1.5-1.9c0-0.2,0-0.3,0.1-0.5l0,0c0,0,0,0,0-0.1L12.1,4.2z M9.3,4.2L9.3,4.2L4.6,6.8c0,0.2,0.1,0.4,0.1,0.6
	c0,0.9-0.6,1.7-1.4,1.9l0,0l-0.1,0v5.3l0.1,0L9.3,4.2L9.3,4.2z M11.2,4.7c-0.2,0-0.4,0.1-0.6,0.1c-0.2,0-0.4,0-0.6-0.1l0,0L4.1,15.2
	c0.3,0.3,0.5,0.6,0.6,1l0,0h12.1c0.1-0.4,0.3-0.7,0.6-1l0,0L11.2,4.7L11.2,4.7z M12.2,19.9l4.6-2.7c0,0,0-0.1,0-0.1H4.6l0,0.1
	l4.6,2.7c0.4-0.4,0.9-0.6,1.4-0.6C11.3,19.2,11.8,19.5,12.2,19.9L12.2,19.9L12.2,19.9z"/></svg>